#!OML:ASF E:\motion texture\Top Level 1\Subject 1\Session 1\male.ASF
:FULLY-SPECIFIED
:DEGREES
475
root 1.92592 18.2959 6.16428 17.1166 -45.3026 -11.9653
lowerback 4.94413 2.27467 5.3886
upperback -4.12444 3.38332 -1.50345
thorax -6.70224 1.36372 -4.95555
lowerneck -12.8428 -11.6787 -14.2124
upperneck 7.1241 -13.4156 2.73315
head 5.31881 -6.80307 1.80849
rclavicle 5.92875e-014 -1.90833e-014
rhumerus 75.7343 -60.3073 -59.8749
rradius 110.091
rwrist -1.16802
rhand -10.3967 -23.1079
rfingers 7.12502
rthumb 15.6016 -52.4987
lclavicle 5.92875e-014 -1.90833e-014
lhumerus -61.813 23.4697 30.6892
lradius 28.6402
lwrist -17.354
lhand -14.6558 24.6468
lfingers 7.12502
lthumb 11.4967 54.3115
rfemur -10.3551 -6.04018 32.5721
rtibia 18.4429
rfoot -11.3831 -13.4256
rtoes 14.2771
lfemur -23.8635 -14.6922 1.34717
ltibia 46.8032
lfoot -3.73846 -3.47948
ltoes -12.9189
476
root 1.81485 18.2977 6.15654 17.269 -45.4516 -12.1341
lowerback 4.89464 2.37885 5.46758
upperback -4.17554 3.52521 -1.54118
thorax -6.70463 1.42768 -5.05186
lowerneck -12.7743 -11.7484 -14.209
upperneck 7.22174 -13.5316 2.83169
head 5.35516 -6.85629 1.82492
rclavicle -8.84095e-014 2.70347e-014
rhumerus 76.6934 -59.9585 -60.948
rradius 109.756
rwrist -0.853735
rhand -10.7483 -23.0561
rfingers 7.12502
rthumb 15.263 -52.473
lclavicle -8.84095e-014 2.70347e-014
lhumerus -61.4981 23.3826 31.5903
lradius 28.8896
lwrist -17.2574
lhand -14.6422 24.4146
lfingers 7.12502
lthumb 11.5099 54.0786
rfemur -9.93255 -6.02941 32.9722
rtibia 18.1173
rfoot -11.4572 -13.3257
rtoes 14.4584
lfemur -24.3699 -14.3802 1.03191
ltibia 46.5249
lfoot -4.31269 -3.15363
ltoes -13.026
477
root 1.70526 18.2989 6.14911 17.4269 -45.6211 -12.3015
lowerback 4.84006 2.49147 5.5479
upperback -4.22771 3.67789 -1.58424
thorax -6.7029 1.4969 -5.15503
lowerneck -12.7067 -11.8191 -14.2117
upperneck 7.31279 -13.6487 2.9355
head 5.39052 -6.90961 1.84374
rclavicle 4.99446e-014 2.8625e-014
rhumerus 77.3834 -59.5105 -61.7627
rradius 109.379
rwrist -0.49904
rhand -11.1008 -22.9856
rfingers 7.12502
rthumb 14.9234 -52.428
lclavicle 4.99446e-014 2.8625e-014
lhumerus -61.1393 23.2723 32.5614
lradius 29.1749
lwrist -17.1647
lhand -14.6348 24.1702
lfingers 7.12502
lthumb 11.5169 53.8338
rfemur -9.52289 -6.01488 33.3589
rtibia 17.8054
rfoot -11.5281 -13.2142
rtoes 14.6274
lfemur -24.8634 -14.058 0.697854
ltibia 46.1561
lfoot -4.87162 -2.84905
ltoes -13.1492
478
root 1.59713 18.2997 6.14201 17.5909 -45.8109 -12.4685
lowerback 4.77954 2.61193 5.62923
upperback -4.27986 3.84056 -1.63064
thorax -6.69551 1.57114 -5.26248
lowerneck -12.641 -11.8899 -14.223
upperneck 7.39454 -13.765 3.045
head 5.42429 -6.96219 1.86566
rclavicle 9.06458e-014 -3.97569e-014
rhumerus 77.818 -58.9709 -62.326
rradius 108.954
rwrist -0.107063
rhand -11.4678 -22.8845
rfingers 7.12502
rthumb 14.5698 -52.3528
lclavicle 9.06458e-014 -3.97569e-014
lhumerus -60.7422 23.1403 33.5964
lradius 29.4962
lwrist -17.0733
lhand -14.6168 23.9023
lfingers 7.12502
lthumb 11.5343 53.565
rfemur -9.12521 -5.99312 33.7329
rtibia 17.5064
rfoot -11.5956 -13.0933
rtoes 14.7831
lfemur -25.3438 -13.7273 0.347284
ltibia 45.6972
lfoot -5.40984 -2.56976
ltoes -13.2677
479
root 1.49017 18.2999 6.13516 17.7642 -46.0223 -12.6396
lowerback 4.71268 2.74063 5.71294
upperback -4.33193 4.01382 -1.68041
thorax -6.6819 1.65068 -5.37495
lowerneck -12.5781 -11.9613 -14.237
upperneck 7.46827 -13.8814 3.15602
head 5.45637 -7.01454 1.88842
rclavicle -4.58696e-014 -1.59028e-015
rhumerus 78.0153 -58.3454 -62.6541
rradius 108.477
rwrist 0.321284
rhand -11.8283 -22.7735
rfingers 7.12502
rthumb 14.2225 -52.2666
lclavicle -4.58696e-014 -1.59028e-015
lhumerus -60.309 22.9816 34.6894
lradius 29.8534
lwrist -16.9852
lhand -14.5963 23.6161
lfingers 7.12502
lthumb 11.5541 53.2776
rfemur -8.73954 -5.96234 34.098
rtibia 17.2227
rfoot -11.6614 -12.9622
rtoes 14.9356
lfemur -25.8085 -13.3864 -0.0137867
ltibia 45.148
lfoot -5.92325 -2.32518
ltoes -13.3753
480
root 1.38454 18.2995 6.12871 17.9439 -46.2531 -12.8089
lowerback 4.63918 2.87584 5.7992
upperback -4.38399 4.19527 -1.73482
thorax -6.66208 1.73431 -5.49352
lowerneck -12.5178 -12.0316 -14.2568
upperneck 7.53205 -13.9959 3.27162
head 5.48642 -7.06553 1.91368
rclavicle -1.20762e-014 0
rhumerus 77.9981 -57.6381 -62.7655
rradius 107.941
rwrist 0.785779
rhand -12.1841 -22.6526
rfingers 7.12502
rthumb 13.8796 -52.1694
lclavicle -1.20762e-014 0
lhumerus -59.8439 22.7941 35.836
lradius 30.2468
lwrist -16.8944
lhand -14.5822 23.3212
lfingers 7.12502
lthumb 11.5677 52.982
rfemur -8.36757 -5.93142 34.4486
rtibia 16.9554
rfoot -11.7257 -12.8154
rtoes 15.0738
lfemur -26.2597 -13.0408 -0.389699
ltibia 44.5117
lfoot -6.40455 -2.11338
ltoes -13.48
481
root 1.28006 18.2986 6.1226 18.1327 -46.5033 -12.9807
lowerback 4.55868 3.01845 5.88874
upperback -4.43539 4.38615 -1.79273
thorax -6.63489 1.82274 -5.61733
lowerneck -12.4608 -12.1013 -14.2824
upperneck 7.58611 -14.1084 3.39244
head 5.51467 -7.1152 1.94159
rclavicle 1.02821e-013 1.27222e-014
rhumerus 77.7922 -56.8555 -62.6797
rradius 107.339
rwrist 1.28552
rhand -12.53 -22.5269
rfingers 7.12502
rthumb 13.5462 -52.0663
lclavicle 1.02821e-013 1.27222e-014
lhumerus -59.3495 22.5778 37.0283
lradius 30.6752
lwrist -16.805
lhand -14.5671 23.0132
lfingers 7.12502
lthumb 11.5823 52.6731
rfemur -8.00991 -5.89876 34.7876
rtibia 16.707
rfoot -11.7891 -12.653
rtoes 15.1947
lfemur -26.697 -12.6904 -0.774801
ltibia 43.7906
lfoot -6.85039 -1.93125
ltoes -13.595
482
root 1.17668 18.2971 6.11689 18.331 -46.7724 -13.1557
lowerback 4.47274 3.16705 5.98354
upperback -4.48679 4.58484 -1.85421
thorax -6.60189 1.915 -5.74743
lowerneck -12.4068 -12.1687 -14.3163
upperneck 7.63115 -14.2174 3.52225
head 5.54167 -7.16253 1.97384
rclavicle 8.15017e-014 3.33958e-014
rhumerus 77.4233 -55.9979 -62.4199
rradius 106.662
rwrist 1.81645
rhand -12.8697 -22.393
rfingers 7.12502
rthumb 13.2188 -51.9539
lclavicle 8.15017e-014 3.33958e-014
lhumerus -58.8326 22.3307 38.258
lradius 31.1389
lwrist -16.714
lhand -14.5565 22.6958
lfingers 7.12502
lthumb 11.5925 52.3552
rfemur -7.66609 -5.86622 35.115
rtibia 16.4783
rfoot -11.8529 -12.4726
rtoes 15.3039
lfemur -27.1197 -12.3368 -1.16697
ltibia 42.9882
lfoot -7.25925 -1.77917
ltoes -13.7172
483
root 1.07433 18.2951 6.11155 18.5406 -47.0596 -13.3342
lowerback 4.37926 3.32221 6.08071
upperback -4.53767 4.79183 -1.91709
thorax -6.56147 2.01165 -5.87964
lowerneck -12.3559 -12.2349 -14.3557
upperneck 7.66518 -14.3235 3.65432
head 5.56614 -7.20825 2.00796
rclavicle -4.36332e-014 -3.18055e-014
rhumerus 76.9225 -55.0685 -62.0078
rradius 105.9
rwrist 2.37684
rhand -13.201 -22.2577
rfingers 7.12502
rthumb 12.8995 -51.839
lclavicle -4.36332e-014 -3.18055e-014
lhumerus -58.297 22.0542 39.5207
lradius 31.6367
lwrist -16.6267
lhand -14.5465 22.3674
lfingers 7.12502
lthumb 11.6021 52.0263
rfemur -7.3388 -5.83618 35.4307
rtibia 16.2717
rfoot -11.9169 -12.2729
rtoes 15.3926
lfemur -27.5303 -11.9806 -1.56367
ltibia 42.1106
lfoot -7.63143 -1.65719
ltoes -13.8432
484
root 0.972892 18.2924 6.10659 18.76 -47.3648 -13.5162
lowerback 4.28122 3.483 6.18095
upperback -4.58831 5.00609 -1.98175
thorax -6.51562 2.11205 -6.01476
lowerneck -12.309 -12.2994 -14.4004
upperneck 7.68975 -14.4261 3.78829
head 5.58864 -7.25203 2.0438
rclavicle -2.16178e-014 -1.27222e-014
rhumerus 76.3173 -54.0694 -61.4676
rradius 105.044
rwrist 2.96488
rhand -13.5221 -22.1241
rfingers 7.12502
rthumb 12.5899 -51.7247
lclavicle -2.16178e-014 -1.27222e-014
lhumerus -57.7485 21.7485 40.8074
lradius 32.1682
lwrist -16.5447
lhand -14.5361 22.0284
lfingers 7.12502
lthumb 11.6121 51.6867
rfemur -7.02607 -5.80886 35.7342
rtibia 16.0875
rfoot -11.9817 -12.0542
rtoes 15.4599
lfemur -27.9275 -11.623 -1.96402
ltibia 41.1625
lfoot -7.96885 -1.56506
ltoes -13.9826
485
root 0.872099 18.2891 6.10195 18.9938 -47.6876 -13.7089
lowerback 4.18105 3.64991 6.2893
upperback -4.63973 5.22874 -2.04898
thorax -6.46611 2.21641 -6.15667
lowerneck -12.2596 -12.3612 -14.4523
upperneck 7.70092 -14.5254 3.93301
head 5.60774 -7.29356 2.08476
rclavicle -2.32578e-014 -7.95139e-015
rhumerus 75.6325 -53.0047 -60.8243
rradius 104.087
rwrist 3.57925
rhand -13.8316 -21.9912
rfingers 7.12502
rthumb 12.2915 -51.6099
lclavicle -2.32578e-014 -7.95139e-015
lhumerus -57.1894 21.4097 42.1084
lradius 32.7321
lwrist -16.4695
lhand -14.5269 21.6828
lfingers 7.12502
lthumb 11.621 51.3406
rfemur -6.7266 -5.78202 36.031
rtibia 15.9265
rfoot -12.0483 -11.8164
rtoes 15.5127
lfemur -28.31 -11.2631 -2.35957
ltibia 40.1498
lfoot -8.2731 -1.50182
ltoes -14.1233
486
root 0.772212 18.2852 6.09783 19.2369 -48.0254 -13.9024
lowerback 4.07288 3.82205 6.39801
upperback -4.68956 5.45772 -2.11658
thorax -6.40797 2.32448 -6.29777
lowerneck -12.2164 -12.4224 -14.5063
upperneck 7.70469 -14.6219 4.07297
head 5.62518 -7.33386 2.12472
rclavicle 7.25564e-015 -3.02153e-014
rhumerus 74.9028 -51.8776 -60.0987
rradius 103.018
rwrist 4.21728
rhand -14.1268 -21.8631
rfingers 7.12502
rthumb 12.0068 -51.4987
lclavicle 7.25564e-015 -3.02153e-014
lhumerus -56.6236 21.0396 43.4264
lradius 33.3284
lwrist -16.3969
lhand -14.5179 21.3305
lfingers 7.12502
lthumb 11.6297 50.9877
rfemur -6.44336 -5.76664 36.3123
rtibia 15.7894
rfoot -12.1163 -11.5528
rtoes 15.5467
lfemur -28.6828 -10.9068 -2.758
ltibia 39.0818
lfoot -8.53836 -1.46253
ltoes -14.2374
487
root 0.672833 18.2806 6.09408 19.4945 -48.379 -14.1066
lowerback 3.96153 3.99939 6.51281
upperback -4.73889 5.69369 -2.18449
thorax -6.34451 2.43614 -6.44158
lowerneck -12.1784 -12.4827 -14.5635
upperneck 7.70138 -14.7157 4.21191
head 5.64129 -7.37282 2.16499
rclavicle -1.64991e-014 -4.77083e-015
rhumerus 74.1511 -50.6918 -59.3159
rradius 101.826
rwrist 4.88066
rhand -14.4033 -21.7331
rfingers 7.12502
rthumb 11.7402 -51.3841
lclavicle -1.64991e-014 -4.77083e-015
lhumerus -56.0559 20.6411 44.7477
lradius 33.9543
lwrist -16.3311
lhand -14.5109 20.9736
lfingers 7.12502
lthumb 11.6364 50.6304
rfemur -6.17328 -5.75536 36.586
rtibia 15.6765
rfoot -12.1861 -11.2686
rtoes 15.5641
lfemur -29.0432 -10.5504 -3.1488
ltibia 37.9651
lfoot -8.7725 -1.45157
ltoes -14.3538
488
root 0.573932 18.2755 6.09077 19.7655 -48.7472 -14.3197
lowerback 3.84657 4.18138 6.63235
upperback -4.78733 5.93578 -2.25291
thorax -6.27517 2.55109 -6.58729
lowerneck -12.143 -12.5409 -14.6239
upperneck 7.68861 -14.8061 4.3538
head 5.65515 -7.40985 2.20708
rclavicle 2.1916e-014 6.36111e-015
rhumerus 73.4026 -49.4532 -58.4955
rradius 100.503
rwrist 5.56554
rhand -14.6585 -21.6098
rfingers 7.12502
rthumb 11.4941 -51.2746
lclavicle 2.1916e-014 6.36111e-015
lhumerus -55.4893 20.2166 46.0663
lradius 34.6081
lwrist -16.2765
lhand -14.5025 20.616
lfingers 7.12502
lthumb 11.6446 50.2724
rfemur -5.91662 -5.75145 36.8502
rtibia 15.5888
rfoot -12.2579 -10.9616
rtoes 15.5639
lfemur -29.3926 -10.1973 -3.53199
ltibia 36.8091
lfoot -8.97342 -1.46439
ltoes -14.4655
489
root 0.475396 18.2698 6.08789 20.0495 -49.1301 -14.5412
lowerback 3.73047 4.36828 6.75499
upperback -4.83618 6.18438 -2.32162
thorax -6.20279 2.66944 -6.73399
lowerneck -12.1089 -12.5979 -14.6881
upperneck 7.66736 -14.894 4.49706
head 5.66687 -7.44553 2.25055
rclavicle -6.08778e-014 -1.59028e-014
rhumerus 72.6748 -48.1677 -57.6525
rradius 99.0446
rwrist 6.27001
rhand -14.891 -21.4946
rfingers 7.12502
rthumb 11.2698 -51.1718
lclavicle -6.08778e-014 -1.59028e-014
lhumerus -54.9276 19.7659 47.3757
lradius 35.2869
lwrist -16.2293
lhand -14.4956 20.2554
lfingers 7.12502
lthumb 11.6512 49.9115
rfemur -5.67338 -5.75336 37.104
rtibia 15.5271
rfoot -12.332 -10.6332
rtoes 15.5435
lfemur -29.7315 -9.84799 -3.90663
ltibia 35.6217
lfoot -9.14127 -1.49645
ltoes -14.5825
